{
  "accessors": [
    {
      "bufferView": 2,
      "componentType": 5126,
      "count": 65532,
      "max": [
        0.09217902272939682,
        -1.598984718322754,
        -0.32287275791168213
      ],
      "min": [
        -0.07334250956773758,
        -1.7813410758972168,
        -0.45622479915618896
      ],
      "type": "VEC3"
    },
    {
      "bufferView": 2,
      "byteOffset": 786384,
      "componentType": 5126,
      "count": 65532,
      "max": [
        0.9999598860740662,
        0.9999192357063293,
        0.9999918341636658
      ],
      "min": [
        -0.9999542832374573,
        -0.9999886751174927,
        -0.9999939203262329
      ],
      "type": "VEC3"
    },
    {
      "bufferView": 1,
      "componentType": 5126,
      "count": 65532,
      "max": [
        0.9990063905715942,
        0.9991592764854431
      ],
      "min": [
        0.00048828125,
        0.035908639430999756
      ],
      "type": "VEC2"
    },
    {
      "bufferView": 0,
      "componentType": 5125,
      "count": 319269,
      "type": "SCALAR"
    },
    {
      "bufferView": 2,
      "byteOffset": 1572768,
      "componentType": 5126,
      "count": 65532,
      "max": [
        0.09266342222690582,
        -1.5958750247955322,
        -0.3276432454586029
      ],
      "min": [
        -0.03953840956091881,
        -1.77913236618042,
        -0.4612007141113281
      ],
      "type": "VEC3"
    },
    {
      "bufferView": 2,
      "byteOffset": 2359152,
      "componentType": 5126,
      "count": 65532,
      "max": [
        0.999997079372406,
        0.9999648332595825,
        0.9999110102653503
      ],
      "min": [
        -0.9999207854270935,
        -0.9999169707298279,
        -0.9999985098838806
      ],
      "type": "VEC3"
    },
    {
      "bufferView": 1,
      "byteOffset": 524256,
      "componentType": 5126,
      "count": 65532,
      "max": [
        0.9990025758743286,
        0.9994428753852844
      ],
      "min": [
        0.00048828125,
        0.00830090045928955
      ],
      "type": "VEC2"
    },
    {
      "bufferView": 0,
      "byteOffset": 1277076,
      "componentType": 5125,
      "count": 313125,
      "type": "SCALAR"
    },
    {
      "bufferView": 2,
      "byteOffset": 3145536,
      "componentType": 5126,
      "count": 65532,
      "max": [
        0.09291709214448929,
        -1.606691837310791,
        -0.32287275791168213
      ],
      "min": [
        -0.0252195093780756,
        -1.7758017778396606,
        -0.4612347185611725
      ],
      "type": "VEC3"
    },
    {
      "bufferView": 2,
      "byteOffset": 3931920,
      "componentType": 5126,
      "count": 65532,
      "max": [
        0.9998342394828796,
        0.9998218417167664,
        0.9999626874923706
      ],
      "min": [
        -0.9999116063117981,
        -0.9998445510864258,
        -0.9999971985816956
      ],
      "type": "VEC3"
    },
    {
      "bufferView": 1,
      "byteOffset": 1048512,
      "componentType": 5126,
      "count": 65532,
      "max": [
        0.9994499683380127,
        0.9994829893112183
      ],
      "min": [
        0.00048828125,
        0.0024415254592895508
      ],
      "type": "VEC2"
    },
    {
      "bufferView": 0,
      "byteOffset": 2529576,
      "componentType": 5125,
      "count": 300408,
      "type": "SCALAR"
    },
    {
      "bufferView": 2,
      "byteOffset": 4718304,
      "componentType": 5126,
      "count": 65532,
      "max": [
        0.07268873602151871,
        -1.5944701433181763,
        -0.32524314522743225
      ],
      "min": [
        -0.09165774285793304,
        -1.7812011241912842,
        -0.45581695437431335
      ],
      "type": "VEC3"
    },
    {
      "bufferView": 2,
      "byteOffset": 5504688,
      "componentType": 5126,
      "count": 65532,
      "max": [
        0.9999311566352844,
        0.9999791979789734,
        0.9999931454658508
      ],
      "min": [
        -0.9999955892562866,
        -0.9999886751174927,
        -0.9999998807907104
      ],
      "type": "VEC3"
    },
    {
      "bufferView": 1,
      "byteOffset": 1572768,
      "componentType": 5126,
      "count": 65532,
      "max": [
        0.9981642365455627,
        0.999494194984436
      ],
      "min": [
        0.00048828125,
        0.09880077838897705
      ],
      "type": "VEC2"
    },
    {
      "bufferView": 0,
      "byteOffset": 3731208,
      "componentType": 5125,
      "count": 320274,
      "type": "SCALAR"
    },
    {
      "bufferView": 2,
      "byteOffset": 6291072,
      "componentType": 5126,
      "count": 60132,
      "max": [
        0.08584672957658768,
        -1.592428207397461,
        -0.3252265453338623
      ],
      "min": [
        -0.0913882702589035,
        -1.7814847230911255,
        -0.4556995630264282
      ],
      "type": "VEC3"
    },
    {
      "bufferView": 2,
      "byteOffset": 7012656,
      "componentType": 5126,
      "count": 60132,
      "max": [
        0.9999223351478577,
        0.9999890923500061,
        0.9999980926513672
      ],
      "min": [
        -0.9999955892562866,
        -0.9999886751174927,
        -0.9999998807907104
      ],
      "type": "VEC3"
    },
    {
      "bufferView": 1,
      "byteOffset": 2097024,
      "componentType": 5126,
      "count": 60132,
      "max": [
        0.9993167519569397,
        0.9994961023330688
      ],
      "min": [
        0.00048828125,
        0.02074718475341797
      ],
      "type": "VEC2"
    },
    {
      "bufferView": 0,
      "byteOffset": 5012304,
      "componentType": 5125,
      "count": 253011,
      "type": "SCALAR"
    }
  ],
  "asset": {
    "extras": {
      "author": "banyahpp (https://sketchfab.com/banyahpp)",
      "license": "CC-BY-4.0 (http://creativecommons.org/licenses/by/4.0/)",
      "source": "https://sketchfab.com/3d-models/museo-craneo-ver1-d7123bb7734a48e1a6eb454aceb007dc",
      "title": "Museo Craneo ver1"
    },
    "generator": "Sketchfab-16.21.0",
    "version": "2.0"
  },
  "bufferViews": [
    {
      "buffer": 0,
      "byteLength": 6024348,
      "name": "floatBufferViews",
      "target": 34963
    },
    {
      "buffer": 0,
      "byteLength": 2578080,
      "byteOffset": 6024348,
      "byteStride": 8,
      "name": "floatBufferViews",
      "target": 34962
    },
    {
      "buffer": 0,
      "byteLength": 7734240,
      "byteOffset": 8602428,
      "byteStride": 12,
      "name": "floatBufferViews",
      "target": 34962
    }
  ],
  "buffers": [
    {
      "byteLength": 16336668,
      "uri": "scene.bin"
    }
  ],
  "extensionsUsed": [
    "KHR_materials_unlit"
  ],
  "images": [
    {
      "uri": "textures/default_tex0_baseColor.jpeg"
    }
  ],
  "materials": [
    {
      "doubleSided": true,
      "extensions": {
        "KHR_materials_unlit": {}
      },
      "name": "default_tex0",
      "pbrMetallicRoughness": {
        "baseColorTexture": {
          "index": 0
        },
        "metallicFactor": 0.0
      }
    }
  ],
  "meshes": [
    {
      "name": "Object_0",
      "primitives": [
        {
          "attributes": {
            "NORMAL": 1,
            "POSITION": 0,
            "TEXCOORD_0": 2
          },
          "indices": 3,
          "material": 0,
          "mode": 4
        }
      ]
    },
    {
      "name": "Object_1",
      "primitives": [
        {
          "attributes": {
            "NORMAL": 5,
            "POSITION": 4,
            "TEXCOORD_0": 6
          },
          "indices": 7,
          "material": 0,
          "mode": 4
        }
      ]
    },
    {
      "name": "Object_2",
      "primitives": [
        {
          "attributes": {
            "NORMAL": 9,
            "POSITION": 8,
            "TEXCOORD_0": 10
          },
          "indices": 11,
          "material": 0,
          "mode": 4
        }
      ]
    },
    {
      "name": "Object_3",
      "primitives": [
        {
          "attributes": {
            "NORMAL": 13,
            "POSITION": 12,
            "TEXCOORD_0": 14
          },
          "indices": 15,
          "material": 0,
          "mode": 4
        }
      ]
    },
    {
      "name": "Object_4",
      "primitives": [
        {
          "attributes": {
            "NORMAL": 17,
            "POSITION": 16,
            "TEXCOORD_0": 18
          },
          "indices": 19,
          "material": 0,
          "mode": 4
        }
      ]
    }
  ],
  "nodes": [
    {
      "children": [
        1
      ],
      "matrix": [
        1.0,
        0.0,
        0.0,
        0.0,
        0.0,
        2.220446049250313e-16,
        -1.0,
        0.0,
        0.0,
        1.0,
        2.220446049250313e-16,
        0.0,
        0.0,
        0.0,
        0.0,
        1.0
      ],
      "name": "Sketchfab_model"
    },
    {
      "children": [
        2
      ],
      "name": "root"
    },
    {
      "children": [
        3
      ],
      "matrix": [
        1.0,
        0.0,
        0.0,
        0.0,
        0.0,
        2.220446049250313e-16,
        1.0,
        0.0,
        0.0,
        -1.0,
        2.220446049250313e-16,
        0.0,
        0.0,
        0.0,
        0.0,
        1.0
      ],
      "name": "GLTF_SceneRootNode"
    },
    {
      "children": [
        4,
        5,
        6,
        7,
        8
      ],
      "name": "_0"
    },
    {
      "mesh": 0,
      "name": "Object_4"
    },
    {
      "mesh": 1,
      "name": "Object_5"
    },
    {
      "mesh": 2,
      "name": "Object_6"
    },
    {
      "mesh": 3,
      "name": "Object_7"
    },
    {
      "mesh": 4,
      "name": "Object_8"
    }
  ],
  "samplers": [
    {
      "magFilter": 9729,
      "minFilter": 9729,
      "wrapS": 33071,
      "wrapT": 33071
    }
  ],
  "scene": 0,
  "scenes": [
    {
      "name": "Sketchfab_Scene",
      "nodes": [
        0
      ]
    }
  ],
  "textures": [
    {
      "sampler": 0,
      "source": 0
    }
  ]
}
